<?xml version="1.0"?>
<svg xmlns="http://www.w3.org/2000/svg" id="Capa_1" enable-background="new 0 0 512 512" height="512px" viewBox="0 0 512 512" width="512px" class=""><g><g><path d="m497 0h-482c-8.284 0-15 6.716-15 15v482c0 8.284 6.716 15 15 15h482c8.284 0 15-6.716 15-15v-482c0-8.284-6.716-15-15-15zm-15 80h-50.334v-50h50.334zm-321.333 352v50h-50.333v-50zm30 0h50.333v50h-50.333zm80.333 0h50.333v50h-50.333zm80.333 0h50.333v50h-50.333zm-321.333-30v-292h452v292zm321.333-322v-50h50.333v50zm-30 0h-50.333v-50h50.333zm-80.333 0h-50.333v-50h50.333zm-80.333 0h-50.333v-50h50.333zm-80.334-50v50h-50.333v-50zm-50.333 402h50.333v50h-50.333zm401.666 50v-50h50.334v50z" data-original="#000000" class="active-path" data-old_color="#000000" fill="#FFFFFF"/><path d="m256 141c-63.411 0-115 51.589-115 115s51.589 115 115 115 115-51.589 115-115-51.589-115-115-115zm0 200c-46.869 0-85-38.131-85-85s38.131-85 85-85 85 38.131 85 85-38.131 85-85 85z" data-original="#000000" class="active-path" data-old_color="#000000" fill="#FFFFFF"/><path d="m305 244-60-45c-4.546-3.409-10.627-3.957-15.708-1.417-5.082 2.542-8.292 7.735-8.292 13.417v90c0 5.682 3.21 10.875 8.292 13.417 2.123 1.062 4.419 1.583 6.706 1.583 3.188 0 6.355-1.015 9.002-3l60-45c3.777-2.833 6-7.279 6-12s-2.223-9.167-6-12zm-54 27v-30l20 15z" data-original="#000000" class="active-path" data-old_color="#000000" fill="#FFFFFF"/></g></g> </svg>
